<?xml version="1.0" encoding="UTF-8" standalone="no"?><!DOCTYPE svg PUBLIC "-//W3C//DTD SVG 1.1//EN" "http://www.w3.org/Graphics/SVG/1.1/DTD/svg11.dtd"><svg width="100%" height="100%" viewBox="0 0 103 105" version="1.1" xmlns="http://www.w3.org/2000/svg" xmlns:xlink="http://www.w3.org/1999/xlink" xml:space="preserve" xmlns:serif="http://www.serif.com/" style="fill-rule:evenodd;clip-rule:evenodd;stroke-linejoin:round;stroke-miterlimit:2;"><path d="M57.107,0.351l1.795,9.208c3.746,0.69 7.385,1.872 10.821,3.516l6.864,-6.394c3.522,1.98 6.802,4.363 9.774,7.101l-3.96,8.504c2.625,2.76 4.873,5.855 6.688,9.205l9.311,-1.139c1.686,3.673 2.939,7.528 3.733,11.49l-8.202,4.552c0.501,3.776 0.501,7.602 0,11.378l8.202,4.553c-0.794,3.961 -2.047,7.817 -3.733,11.489l-9.311,-1.138c-1.815,3.35 -4.063,6.445 -6.688,9.205l3.96,8.504c-2.972,2.738 -6.252,5.121 -9.774,7.101l-6.864,-6.394c-3.436,1.643 -7.075,2.826 -10.821,3.516l-1.795,9.207c-4.013,0.469 -8.068,0.469 -12.081,0l-1.795,-9.207c-3.746,-0.69 -7.384,-1.873 -10.821,-3.516l-6.864,6.394c-3.522,-1.98 -6.802,-4.363 -9.774,-7.101l3.96,-8.504c-2.625,-2.76 -4.873,-5.855 -6.687,-9.205l-9.312,1.138c-1.686,-3.672 -2.938,-7.528 -3.733,-11.489l8.202,-4.553c-0.501,-3.776 -0.501,-7.602 0,-11.378l-8.202,-4.552c0.795,-3.962 2.047,-7.817 3.733,-11.49l9.312,1.139c1.814,-3.35 4.062,-6.445 6.687,-9.205l-3.96,-8.504c2.972,-2.738 6.252,-5.121 9.774,-7.101l6.864,6.394c3.437,-1.644 7.075,-2.826 10.821,-3.516l1.795,-9.208c4.013,-0.468 8.068,-0.468 12.081,0Zm-6.04,30.538c11.697,-0 21.194,9.497 21.194,21.194c-0,11.698 -9.497,21.195 -21.194,21.195c-11.698,-0 -21.195,-9.497 -21.195,-21.195c0,-11.697 9.497,-21.194 21.195,-21.194Z" style="fill:#f77f00;"/></svg>